<?xml version="1.0" encoding="UTF-8" ?>
<!DOCTYPE svg PUBLIC "-//W3C//DTD SVG 1.1//EN" "http://www.w3.org/Graphics/SVG/1.1/DTD/svg11.dtd">
<svg width="1624pt" height="250pt" viewBox="0 0 1624 250" version="1.1" xmlns="http://www.w3.org/2000/svg">
<g id="#fefefeff">
<path fill="#fefefe" opacity="1.00" d=" M 52.49 0.00 L 55.45 0.00 C 75.93 4.99 96.66 8.91 117.11 13.99 C 121.30 14.89 123.58 18.86 126.02 21.98 C 143.31 46.98 161.30 71.49 178.94 96.25 C 206.48 78.19 233.01 58.67 260.33 40.31 C 270.36 33.72 279.91 24.86 292.32 23.28 C 312.92 19.76 333.52 16.19 354.16 12.90 C 344.77 40.52 334.26 67.75 324.18 95.13 C 309.80 134.76 294.96 174.22 280.75 213.91 C 257.39 221.16 233.66 227.28 209.69 232.11 C 223.39 192.80 239.18 154.20 252.17 114.64 C 220.38 134.91 188.95 155.74 157.26 176.17 C 142.09 159.13 127.27 141.77 111.59 125.20 C 107.28 134.10 104.17 143.51 100.70 152.75 C 91.92 176.89 82.76 200.88 74.11 225.06 C 72.85 228.79 70.56 232.53 66.46 233.50 C 45.56 239.63 24.04 243.47 3.25 250.00 L 0.00 250.00 L 0.00 249.39 C 12.71 216.75 25.08 183.96 37.14 151.07 C 45.73 128.31 53.42 105.20 62.74 82.71 C 67.80 69.94 65.89 55.79 63.52 42.63 C 60.69 28.23 57.42 13.83 52.49 0.00 Z" />
<path fill="#fefefe" opacity="1.00" d=" M 1157.79 44.81 C 1179.04 36.30 1199.79 26.53 1221.36 18.81 C 1217.58 30.96 1211.56 42.22 1207.18 54.13 C 1199.26 73.94 1191.11 93.66 1183.55 113.61 C 1175.19 133.75 1169.04 155.16 1155.90 172.91 C 1146.00 187.63 1129.81 196.77 1113.37 202.42 C 1089.35 209.58 1063.82 207.81 1039.12 206.70 C 1024.85 205.15 1009.64 200.20 1000.97 188.00 C 992.66 176.18 993.58 160.18 998.05 147.02 C 1011.29 109.41 1025.99 72.34 1040.01 35.01 C 1059.02 31.96 1077.87 27.15 1097.23 26.91 C 1084.19 65.17 1068.38 102.39 1054.45 140.32 C 1053.12 144.55 1051.04 149.20 1052.30 153.69 C 1054.16 157.63 1057.92 161.06 1062.42 161.48 C 1072.24 162.42 1082.15 162.31 1092.03 162.00 C 1099.97 162.68 1107.19 157.97 1112.24 152.26 C 1115.78 147.37 1118.09 141.76 1120.13 136.11 C 1129.75 109.93 1139.85 83.93 1149.78 57.86 C 1151.71 53.22 1152.56 46.95 1157.79 44.81 Z" />
<path fill="#fefefe" opacity="1.00" d=" M 878.44 27.18 C 907.58 27.19 936.73 25.36 965.87 26.73 C 987.64 27.00 1009.43 26.46 1031.20 26.89 C 1019.43 40.92 1008.10 55.31 996.17 69.19 C 992.76 74.07 986.00 72.48 981.03 73.03 C 959.37 73.17 937.72 72.85 916.07 73.02 C 913.29 80.32 910.04 87.44 907.65 94.89 C 928.99 95.27 950.35 94.56 971.69 95.35 C 977.25 95.85 982.82 95.58 988.39 95.29 C 978.37 108.56 967.67 121.30 957.45 134.42 C 956.08 135.98 954.79 137.99 952.61 138.46 C 933.07 139.15 913.51 137.41 893.97 138.02 C 891.38 137.83 890.53 140.74 889.60 142.60 C 883.62 158.00 877.77 173.46 871.87 188.89 C 869.92 193.19 869.05 198.26 865.82 201.81 C 844.54 213.54 821.98 222.79 799.91 232.91 C 824.46 163.72 852.46 95.83 878.44 27.18 Z" />
<path fill="#fefefe" opacity="1.00" d=" M 374.16 30.18 C 393.24 28.97 412.31 27.57 431.41 26.99 C 427.87 38.61 423.16 49.82 419.46 61.39 C 413.99 78.83 406.52 95.55 400.80 112.91 C 389.14 143.71 378.26 174.79 366.74 205.64 C 347.16 207.64 327.54 209.08 307.89 210.09 C 313.54 200.05 315.49 188.57 320.02 178.05 C 338.79 129.02 355.45 79.22 374.16 30.18 Z" />
<path fill="#fefefe" opacity="1.00" d=" M 574.33 33.17 C 594.21 30.01 614.13 26.28 634.37 26.94 C 624.85 54.25 615.09 81.47 605.81 108.85 C 594.81 138.01 585.16 167.66 575.29 197.20 C 574.17 200.11 572.98 203.85 569.36 204.35 C 555.99 205.71 542.52 204.90 529.12 204.96 C 514.19 173.60 497.14 143.31 481.26 112.44 C 469.47 142.56 459.69 173.43 448.79 203.88 C 429.86 205.62 410.86 206.56 391.86 207.04 C 400.51 179.85 411.01 153.30 420.47 126.39 C 431.77 93.53 444.40 61.13 455.14 28.08 C 471.06 27.93 486.99 27.95 502.92 28.02 C 517.85 56.04 531.13 84.98 547.42 112.26 C 556.73 86.02 565.33 59.52 574.33 33.17 Z" />
<path fill="#fefefe" opacity="1.00" d=" M 658.68 29.64 C 660.13 25.97 665.22 28.21 667.87 27.34 C 702.78 27.71 737.74 25.82 772.59 28.60 C 786.95 30.05 801.28 35.16 812.24 44.77 C 825.15 56.34 830.65 74.62 828.43 91.57 C 823.04 129.49 802.60 166.11 770.00 187.05 C 750.70 200.16 726.86 204.54 703.89 204.91 C 714.01 191.17 727.17 180.18 738.65 167.66 C 746.24 159.24 753.88 150.85 760.99 142.01 C 766.90 134.11 772.39 125.86 779.36 118.83 C 769.46 104.12 759.61 88.33 743.85 79.21 C 730.62 70.73 715.14 66.89 699.69 65.13 C 702.66 73.88 707.07 82.45 706.62 91.97 C 707.11 96.27 705.69 101.11 707.90 105.12 C 711.11 111.21 715.23 116.77 718.45 122.85 C 715.34 124.80 712.05 126.43 708.83 128.17 C 709.26 131.30 709.89 134.43 710.53 137.53 C 709.40 138.43 708.29 139.34 707.17 140.25 C 707.68 141.72 708.22 143.19 708.73 144.68 C 705.17 148.96 705.69 154.57 706.32 159.73 C 705.97 164.58 699.45 164.72 696.02 165.11 C 687.63 166.45 677.45 163.57 671.25 171.24 C 662.68 180.43 656.87 191.70 650.22 202.24 C 648.32 205.95 643.46 205.71 639.98 205.66 C 626.01 205.52 612.05 204.73 598.08 204.97 C 614.72 153.32 632.92 102.19 651.05 51.05 C 653.43 43.86 655.42 36.49 658.68 29.64 Z" />
<path fill="#fefefe" opacity="1.00" d=" M 1285.66 30.63 C 1305.61 25.16 1326.57 27.19 1347.00 27.22 C 1365.05 28.39 1383.22 27.11 1401.22 29.18 C 1389.05 44.08 1376.32 58.52 1364.87 73.99 C 1344.09 74.47 1323.34 72.92 1302.56 73.30 C 1293.09 72.71 1283.16 75.45 1276.45 82.43 C 1267.14 91.19 1264.26 104.02 1259.48 115.40 C 1255.67 126.27 1250.64 136.84 1248.41 148.18 C 1247.01 156.30 1255.26 162.83 1263.00 161.86 C 1292.04 162.39 1321.09 161.72 1350.14 162.05 C 1338.52 177.36 1326.00 191.96 1313.87 206.86 C 1288.70 205.72 1263.46 208.24 1238.30 206.71 C 1226.30 205.06 1213.19 202.66 1204.16 193.85 C 1197.14 187.76 1192.19 179.20 1191.26 169.87 C 1189.63 154.76 1194.38 139.88 1199.99 126.05 C 1207.42 106.71 1214.14 86.62 1227.13 70.15 C 1241.45 50.88 1262.56 36.96 1285.66 30.63 Z" />
<path fill="#fefefe" opacity="1.00" d=" M 1414.72 36.85 C 1434.30 32.70 1454.40 30.67 1474.36 28.92 C 1467.10 47.50 1458.93 65.72 1451.89 84.39 C 1478.75 68.74 1504.53 51.26 1531.03 35.01 C 1542.67 28.71 1556.30 31.27 1568.92 31.40 C 1584.78 32.44 1600.72 30.25 1616.55 32.33 C 1588.77 50.49 1560.03 67.17 1532.56 85.81 C 1563.06 85.82 1593.49 83.17 1624.00 82.84 L 1624.00 83.63 C 1600.54 89.23 1576.59 92.16 1552.95 96.78 C 1518.00 102.96 1483.10 109.42 1448.06 115.06 C 1424.82 118.38 1401.91 123.69 1378.64 126.77 C 1386.93 103.13 1396.13 79.81 1405.51 56.58 C 1408.35 49.99 1409.64 42.03 1414.72 36.85 Z" />
<path fill="#fefefe" opacity="1.00" d=" M 1469.86 122.84 C 1473.68 122.54 1478.99 120.27 1481.40 124.60 C 1511.32 160.62 1541.44 196.49 1572.36 231.66 C 1576.15 236.03 1579.60 240.66 1583.12 245.27 C 1551.94 234.76 1521.72 221.60 1490.85 210.25 C 1485.48 208.25 1479.84 206.37 1475.44 202.60 C 1461.25 186.80 1448.08 169.95 1432.62 155.37 C 1427.41 155.77 1420.89 157.65 1419.22 163.27 C 1414.14 177.25 1408.36 190.97 1402.80 204.77 C 1384.43 205.52 1366.08 206.81 1347.70 207.00 C 1356.13 184.69 1364.87 162.50 1373.39 140.22 C 1405.49 134.13 1437.82 129.30 1469.86 122.84 Z" />
</g>
</svg>
