<?xml version="1.0" encoding="UTF-8" ?>
<!DOCTYPE svg PUBLIC "-//W3C//DTD SVG 1.1//EN" "http://www.w3.org/Graphics/SVG/1.1/DTD/svg11.dtd">
<svg width="1560pt" height="217pt" viewBox="0 0 1560 217" version="1.1" xmlns="http://www.w3.org/2000/svg">
<g id="#fefefeff">
<path fill="#fefefe" opacity="1.00" d=" M 127.11 0.00 L 137.09 0.00 C 139.77 3.71 142.02 7.72 144.21 11.74 C 175.82 71.17 207.03 130.84 241.11 188.91 C 246.14 197.91 251.08 206.96 256.10 215.97 C 239.83 216.11 223.56 216.00 207.29 215.91 C 187.60 175.53 164.66 136.88 143.93 97.04 C 135.30 80.16 125.28 64.02 116.89 47.00 C 116.20 47.02 114.81 47.05 114.12 47.07 C 87.16 94.58 59.96 141.98 34.25 190.19 C 29.56 199.26 24.88 208.36 19.40 217.00 L 15.49 217.00 C 10.33 216.70 5.17 216.31 0.00 216.02 L 0.00 215.56 C 8.93 202.38 16.71 188.48 24.84 174.81 C 37.62 154.11 49.84 133.09 62.15 112.11 C 84.30 75.04 107.06 38.27 127.11 0.00 Z" />
<path fill="#fefefe" opacity="1.00" d=" M 682.99 0.00 L 691.88 0.00 C 711.27 36.83 733.05 72.32 753.49 108.56 C 773.49 144.48 794.15 180.02 814.07 215.98 C 795.22 215.79 776.37 215.88 757.55 217.00 L 754.40 217.00 C 743.31 216.46 732.22 216.01 721.13 215.84 C 719.48 210.65 718.40 205.11 715.73 200.35 C 708.36 197.52 700.42 196.55 693.08 193.69 C 690.21 190.95 691.89 186.28 691.92 182.98 C 694.88 162.88 697.37 142.69 697.64 122.35 C 697.87 118.29 701.44 115.60 702.85 111.98 C 705.62 104.82 706.28 96.93 705.58 89.35 C 703.54 83.12 696.09 81.54 691.10 78.58 C 691.64 72.19 693.16 65.76 692.50 59.34 C 690.56 52.23 679.43 51.31 676.42 58.39 C 674.39 64.86 676.90 71.78 677.93 78.22 C 672.86 81.28 665.67 82.22 662.82 87.84 C 661.20 96.92 661.61 107.25 666.91 115.17 C 668.25 117.43 670.20 119.59 670.29 122.36 C 671.07 142.28 673.10 162.12 675.24 181.94 C 675.39 185.78 676.27 189.86 674.67 193.50 C 667.48 196.90 659.48 197.88 651.79 199.61 C 650.17 205.02 648.53 210.43 646.85 215.82 C 631.50 215.82 616.15 216.13 600.82 217.00 L 600.25 217.00 C 585.90 216.11 571.53 215.81 557.16 215.95 C 566.83 201.36 574.68 185.70 583.77 170.77 C 612.77 119.94 642.82 69.71 671.77 18.84 C 675.43 12.53 678.29 5.65 682.99 0.00 Z" />
<path fill="#fefefe" opacity="1.00" d=" M 210.82 1.09 C 230.31 0.94 249.79 1.00 269.28 0.91 C 267.91 6.91 265.97 13.49 269.85 19.05 C 294.30 67.51 320.41 115.13 344.30 163.87 C 344.85 163.85 345.95 163.79 346.51 163.76 C 362.77 132.52 378.92 101.18 396.51 70.64 C 399.72 77.17 403.45 85.10 399.29 92.13 C 375.80 133.39 353.14 175.14 330.74 217.00 L 327.27 217.00 C 313.92 189.94 298.82 163.79 285.18 136.87 C 264.11 96.69 241.89 57.10 221.41 16.61 C 218.44 11.06 214.73 6.00 210.82 1.09 Z" />
<path fill="#fefefe" opacity="1.00" d=" M 367.25 0.93 C 386.40 1.02 405.55 1.00 424.71 0.98 C 424.93 7.81 424.17 15.12 427.53 21.38 C 452.26 69.46 477.98 117.03 502.25 165.35 C 522.11 125.52 543.08 86.28 563.82 46.92 C 570.39 31.72 581.27 17.98 583.03 1.08 C 591.11 1.07 599.20 1.08 607.30 1.11 C 594.41 22.44 582.38 44.27 569.74 65.75 C 547.88 104.20 527.65 143.54 506.17 182.20 C 499.52 193.58 494.43 205.80 487.48 217.00 L 483.82 217.00 C 453.47 158.87 422.76 100.92 392.03 42.99 C 384.38 28.65 377.89 13.40 367.25 0.93 Z" />
<path fill="#fefefe" opacity="1.00" d=" M 840.95 1.04 C 886.64 1.01 932.33 0.91 978.02 1.03 C 997.54 0.91 1017.53 3.88 1035.03 12.96 C 1046.32 18.69 1056.04 27.67 1062.25 38.75 C 1073.84 60.90 1069.95 90.28 1051.84 107.85 C 1037.09 122.83 1016.11 128.88 995.77 131.07 C 1019.99 159.80 1046.39 186.63 1070.22 215.69 C 1058.40 216.00 1046.59 216.42 1034.79 217.00 L 1034.15 217.00 C 1031.20 216.94 1028.45 216.96 1025.56 217.00 L 1022.10 217.00 C 1017.04 216.54 1013.69 212.91 1010.80 209.21 C 987.44 179.30 962.41 150.74 938.65 121.16 C 958.34 119.99 979.35 124.34 997.97 115.93 C 1016.29 107.06 1025.58 85.60 1025.03 66.00 C 1025.30 51.23 1020.65 35.69 1009.37 25.62 C 1001.84 19.23 992.80 14.48 982.94 13.10 C 965.13 10.51 947.09 11.58 929.17 11.45 C 915.39 11.63 901.63 11.11 887.87 11.23 C 889.58 15.89 892.20 20.43 892.55 25.49 C 893.51 40.31 892.98 55.16 893.02 70.00 C 892.96 118.59 893.05 167.18 892.98 215.77 C 888.21 216.16 883.52 216.62 878.79 217.00 L 878.22 217.00 C 868.48 216.47 858.74 215.99 849.00 215.65 C 849.05 155.76 848.86 95.88 849.14 35.99 C 849.05 29.21 849.03 22.41 848.18 15.68 C 847.24 10.20 843.58 5.77 840.95 1.04 Z" />
<path fill="#fefefe" opacity="1.00" d=" M 1104.14 0.93 C 1144.09 1.07 1184.05 0.99 1224.01 0.95 C 1248.91 0.57 1274.42 5.34 1296.24 17.75 C 1321.12 31.73 1339.28 56.83 1345.31 84.68 C 1351.68 113.31 1347.09 144.81 1329.99 168.99 C 1317.20 188.66 1296.85 202.63 1274.68 209.72 C 1258.06 215.19 1240.35 216.04 1223.00 216.05 C 1186.33 215.97 1149.67 216.01 1113.00 216.00 C 1113.03 152.66 1112.91 89.31 1113.10 25.97 C 1113.84 16.70 1109.74 8.03 1104.14 0.93 M 1152.22 12.01 C 1155.74 19.52 1156.17 27.82 1156.08 35.99 C 1155.93 92.66 1156.01 149.32 1156.00 205.99 C 1180.35 205.73 1204.73 206.72 1229.06 205.33 C 1249.91 204.98 1270.25 194.38 1282.73 177.74 C 1296.02 160.71 1301.59 139.02 1303.79 117.87 C 1304.28 96.87 1301.80 75.30 1292.95 56.03 C 1287.97 46.24 1282.15 36.45 1273.31 29.66 C 1259.14 17.67 1240.40 11.85 1222.00 11.82 C 1198.75 11.11 1175.46 11.35 1152.22 12.01 Z" />
<path fill="#fefefe" opacity="1.00" d=" M 1390.03 13.00 C 1403.03 4.74 1418.61 0.73 1433.98 0.98 C 1467.23 0.87 1500.49 1.07 1533.76 1.01 C 1533.41 4.31 1532.93 7.62 1532.72 10.92 C 1512.51 12.35 1492.24 11.58 1472.01 11.15 C 1453.58 11.06 1434.55 9.63 1416.83 15.78 C 1406.81 19.27 1398.40 28.38 1397.15 39.08 C 1395.89 50.19 1404.17 59.52 1413.02 64.94 C 1428.57 75.13 1446.78 79.61 1464.01 85.97 C 1481.38 92.40 1499.36 97.23 1516.38 104.63 C 1527.49 109.80 1538.73 115.67 1546.62 125.36 C 1554.52 133.80 1557.81 145.24 1560.00 156.32 L 1560.00 165.40 C 1557.81 181.33 1548.94 196.61 1534.96 204.93 C 1518.21 216.34 1496.95 215.95 1477.57 217.00 L 1474.42 217.00 C 1461.52 216.03 1448.58 216.05 1435.70 217.00 L 1435.09 217.00 C 1429.65 216.90 1424.24 216.90 1418.85 217.00 L 1418.27 217.00 C 1398.83 215.76 1379.35 215.80 1359.90 216.00 C 1361.50 212.89 1362.82 209.60 1364.93 206.78 C 1368.64 205.15 1372.99 206.41 1376.97 205.83 C 1408.64 205.94 1440.33 206.16 1472.02 206.00 C 1483.67 205.96 1495.53 205.33 1506.76 201.90 C 1518.23 197.73 1528.44 186.78 1527.76 173.99 C 1528.41 166.34 1523.46 159.75 1518.59 154.44 C 1508.62 145.46 1495.52 141.56 1483.30 136.72 C 1460.66 128.40 1437.44 121.70 1414.94 113.02 C 1399.46 107.00 1384.18 98.40 1374.27 84.72 C 1358.15 62.11 1366.25 26.98 1390.03 13.00 Z" />
<path fill="#fefefe" opacity="1.00" d=" M 117.44 139.87 C 120.65 148.47 123.20 157.61 129.14 164.84 C 135.67 170.41 143.83 173.42 152.04 175.47 C 141.12 177.85 129.72 182.80 123.90 192.91 C 120.26 198.32 119.03 204.82 117.53 211.05 C 114.90 200.89 111.22 190.06 102.51 183.44 C 96.59 178.71 89.11 177.01 81.88 175.40 C 91.58 174.22 101.19 170.24 107.76 162.79 C 113.64 156.59 114.97 147.68 117.44 139.87 Z" />
</g>
</svg>
