<?xml version="1.0" encoding="UTF-8" ?>
<!DOCTYPE svg PUBLIC "-//W3C//DTD SVG 1.1//EN" "http://www.w3.org/Graphics/SVG/1.1/DTD/svg11.dtd">
<svg width="1655pt" height="293pt" viewBox="0 0 1655 293" version="1.1" xmlns="http://www.w3.org/2000/svg">
<g id="#fefefeff">
<path fill="#fefefe" opacity="1.00" d=" M 131.61 0.00 L 161.04 0.00 C 164.59 3.04 166.50 3.04 166.78 0.00 L 201.48 0.00 C 204.37 0.30 207.29 0.67 210.19 1.02 C 185.96 59.24 161.19 117.24 136.09 175.09 C 128.89 192.06 120.97 208.73 114.50 226.00 C 128.98 226.86 143.50 226.51 158.01 226.32 C 199.98 226.88 241.96 226.20 283.94 226.62 C 323.75 225.56 363.56 227.30 403.37 226.57 C 380.10 237.33 355.71 245.43 331.93 254.96 C 311.21 262.43 291.03 273.60 268.45 273.53 C 222.58 276.32 176.87 281.40 130.99 284.07 C 91.45 286.90 51.80 288.48 12.39 293.00 L 0.00 293.00 L 0.00 291.51 C 7.06 275.71 14.69 260.17 21.18 244.12 C 57.60 162.57 94.42 81.19 131.61 0.00 Z" />
<path fill="#fefefe" opacity="1.00" d=" M 391.62 41.58 C 400.56 33.34 413.19 31.01 424.98 31.05 C 439.89 31.11 455.10 29.64 469.85 32.52 C 472.68 62.79 479.51 92.47 484.33 122.44 C 489.88 158.01 497.06 193.30 502.10 228.95 C 478.87 229.03 455.65 229.05 432.43 228.93 C 431.27 220.20 429.49 211.58 427.72 202.96 C 406.45 203.41 385.21 204.48 363.97 205.62 C 311.95 206.45 259.95 208.88 207.91 207.96 C 225.23 192.63 241.77 176.45 259.07 161.10 C 303.82 121.88 347.22 81.17 391.62 41.58 M 380.61 128.55 C 366.68 139.95 348.02 140.79 331.41 145.73 C 343.01 150.53 357.22 150.90 365.81 161.19 C 374.02 173.21 366.35 188.04 366.65 201.23 C 375.00 192.79 380.08 181.75 387.78 172.77 C 394.06 166.25 401.28 160.55 409.39 156.47 C 421.80 150.59 435.69 149.32 448.89 146.08 C 442.30 142.66 434.68 142.18 427.98 139.03 C 422.65 136.48 416.26 134.04 414.03 127.99 C 408.37 115.82 413.76 102.32 412.85 89.52 C 402.40 102.76 394.65 118.55 380.61 128.55 Z" />
<path fill="#fefefe" opacity="1.00" d=" M 528.96 30.98 C 605.03 31.05 681.09 30.92 757.15 31.05 C 745.54 47.43 736.31 65.32 725.04 81.91 C 714.69 81.95 704.37 82.20 694.04 82.60 C 681.15 82.18 668.23 81.65 655.39 83.10 C 651.13 95.54 645.63 107.50 640.58 119.63 C 625.38 155.94 610.49 192.38 595.79 228.90 C 572.20 229.09 548.60 229.00 525.01 228.99 C 545.18 180.02 566.01 131.32 586.93 82.66 C 560.28 82.20 533.63 82.93 506.99 81.92 C 513.89 64.76 521.42 47.87 528.96 30.98 Z" />
<path fill="#fefefe" opacity="1.00" d=" M 772.84 30.97 C 840.61 31.08 908.38 30.90 976.15 31.06 C 961.99 48.55 945.92 64.37 931.84 81.93 C 894.17 82.10 856.50 81.97 818.84 81.98 C 815.04 89.65 811.97 97.69 809.49 105.88 C 850.36 106.20 891.23 105.85 932.11 106.06 C 918.94 120.35 907.12 135.80 894.59 150.63 C 891.08 155.43 884.12 153.98 879.02 154.52 C 849.32 153.31 819.60 155.15 789.91 153.95 C 786.48 161.57 783.33 169.31 780.07 177.00 C 828.20 177.13 876.33 176.74 924.45 177.18 C 909.68 194.80 893.74 211.40 878.82 228.90 C 815.54 229.12 752.27 228.95 688.99 228.99 C 709.97 177.91 731.41 127.02 753.38 76.36 C 759.55 61.10 765.88 45.88 772.84 30.97 Z" />
<path fill="#fefefe" opacity="1.00" d=" M 967.63 82.69 C 976.52 52.62 1006.66 30.62 1037.97 31.03 C 1093.04 30.97 1148.10 30.94 1203.17 31.09 C 1188.31 47.96 1173.20 64.62 1158.83 81.91 C 1123.88 82.14 1088.92 81.95 1053.97 81.91 C 1046.29 81.57 1037.38 83.17 1033.33 90.44 C 1030.95 96.58 1036.65 100.98 1041.88 102.09 C 1070.44 106.26 1100.47 101.54 1127.97 112.12 C 1142.94 117.46 1155.55 130.25 1158.76 146.06 C 1165.68 175.51 1147.44 206.04 1121.66 219.66 C 1107.52 226.54 1091.68 229.42 1076.01 229.02 C 1020.02 229.01 964.03 228.98 908.04 229.01 C 922.68 211.36 937.98 194.27 953.19 177.10 C 989.79 176.84 1026.41 177.09 1063.02 177.05 C 1069.39 176.82 1076.78 177.62 1081.97 172.99 C 1087.66 170.38 1087.64 160.63 1082.00 158.00 C 1073.28 154.17 1063.37 154.41 1054.04 154.24 C 1036.10 155.20 1017.71 154.68 1000.39 149.49 C 990.58 146.02 980.97 140.93 974.39 132.64 C 963.21 118.80 961.32 99.10 967.63 82.69 Z" />
<path fill="#fefefe" opacity="1.00" d=" M 1226.37 31.20 C 1286.58 30.75 1346.79 31.10 1407.01 31.02 C 1396.00 47.59 1385.64 64.57 1375.67 81.78 C 1358.41 82.16 1341.16 82.80 1323.91 81.93 C 1305.01 131.12 1284.80 179.78 1265.67 228.87 C 1241.78 229.12 1217.89 228.99 1194.01 228.99 C 1214.61 180.44 1233.86 131.32 1254.31 82.70 C 1230.09 81.49 1205.82 82.55 1181.59 82.81 C 1195.99 65.15 1211.78 48.70 1226.37 31.20 Z" />
<path fill="#fefefe" opacity="1.00" d=" M 1426.30 31.13 C 1502.56 30.21 1578.81 32.94 1655.00 36.09 L 1655.00 36.81 C 1574.82 45.23 1494.45 51.80 1414.07 58.05 C 1418.28 49.14 1422.26 40.12 1426.30 31.13 Z" />
<path fill="#fefefe" opacity="1.00" d=" M 1404.34 73.15 C 1453.92 72.38 1503.45 75.49 1553.00 76.97 C 1569.46 77.26 1585.89 78.41 1602.33 79.37 C 1578.11 82.35 1553.92 85.54 1529.58 87.42 C 1483.23 91.32 1437.01 96.68 1390.69 100.83 C 1394.89 91.43 1399.89 82.43 1404.34 73.15 Z" />
<path fill="#fefefe" opacity="1.00" d=" M 1332.11 114.95 C 1369.06 116.53 1406.06 115.27 1443.00 117.05 C 1470.46 118.10 1497.99 118.63 1525.35 121.29 C 1473.84 127.73 1422.11 132.35 1370.54 138.26 C 1353.91 139.65 1337.32 141.57 1320.63 142.00 C 1323.92 132.76 1328.20 123.93 1332.11 114.95 Z" />
</g>
</svg>
